<svg xmlns="http://www.w3.org/2000/svg" viewBox="0 0 240 240">
  <rect width="240" height="240" rx="52" fill="#17150F"/>
  <g fill="none" stroke="#F4F1EA" stroke-width="8" stroke-linejoin="round">
    <path d="M120 107 Q101 66 120 25 Q139 66 120 107 Z" transform="rotate(0 120 120)"/>
    <path d="M120 107 Q101 66 120 25 Q139 66 120 107 Z" transform="rotate(45 120 120)"/>
    <path d="M120 107 Q101 66 120 25 Q139 66 120 107 Z" transform="rotate(90 120 120)"/>
    <path d="M120 107 Q101 66 120 25 Q139 66 120 107 Z" transform="rotate(135 120 120)"/>
    <path d="M120 107 Q101 66 120 25 Q139 66 120 107 Z" transform="rotate(180 120 120)"/>
    <path d="M120 107 Q101 66 120 25 Q139 66 120 107 Z" transform="rotate(225 120 120)"/>
    <path d="M120 107 Q101 66 120 25 Q139 66 120 107 Z" transform="rotate(270 120 120)"/>
    <path d="M120 107 Q101 66 120 25 Q139 66 120 107 Z" transform="rotate(315 120 120)"/>
  </g>
  <circle cx="120" cy="120" r="13" fill="#D97757"/>
</svg>
